<svg id="Layer_1" data-name="Layer 1" xmlns="http://www.w3.org/2000/svg" viewBox="0 0 467.72 349.25"><defs><style>.cls-1,.cls-3{fill:#fff;}.cls-1{stroke:#231f20;stroke-miterlimit:10;stroke-width:0.25px;}.cls-2{fill:#231f20;}.cls-4{fill:#f7ec13;}.cls-5{fill:#ed1e2c;}.cls-6{fill:#6abd45;}</style></defs><title>oculos-2</title><rect class="cls-1" x="113.39" y="193.35" width="14.17" height="14.17"/><rect class="cls-2" x="113.39" y="193.35" width="14.17" height="14.17"/><rect class="cls-2" x="99.21" y="207.52" width="14.17" height="14.17"/><rect class="cls-2" x="85.04" y="221.69" width="14.17" height="14.17"/><rect class="cls-2" x="99.21" y="221.69" width="14.17" height="14.17"/><rect class="cls-2" x="70.87" y="235.87" width="14.17" height="14.17"/><rect class="cls-2" x="85.04" y="235.87" width="14.17" height="14.17"/><rect class="cls-2" x="99.21" y="235.87" width="14.17" height="14.17"/><rect class="cls-2" x="113.39" y="207.52" width="14.17" height="14.17"/><rect class="cls-2" x="113.39" y="221.69" width="14.17" height="14.17"/><rect class="cls-2" x="113.39" y="235.87" width="14.17" height="14.17"/><rect class="cls-2" x="127.56" y="207.52" width="14.17" height="14.17"/><rect class="cls-2" x="127.56" y="221.69" width="14.17" height="14.17"/><rect class="cls-2" x="127.56" y="235.87" width="14.17" height="14.17"/><rect class="cls-2" x="141.73" y="207.52" width="14.17" height="14.17"/><rect class="cls-2" x="141.73" y="221.69" width="14.17" height="14.17"/><rect class="cls-2" x="141.73" y="235.87" width="14.17" height="14.17"/><rect class="cls-2" x="155.91" y="207.52" width="14.17" height="14.17"/><rect class="cls-2" x="155.91" y="221.69" width="14.17" height="14.17"/><rect class="cls-2" x="155.91" y="235.87" width="14.17" height="14.17"/><rect class="cls-2" x="170.08" y="207.52" width="14.17" height="14.17"/><rect class="cls-2" x="170.08" y="221.69" width="14.17" height="14.17"/><rect class="cls-2" x="170.08" y="235.87" width="14.17" height="14.17"/><rect class="cls-2" x="184.25" y="207.52" width="14.17" height="14.17"/><rect class="cls-2" x="184.25" y="221.69" width="14.17" height="14.17"/><rect class="cls-2" x="184.25" y="235.87" width="14.17" height="14.17"/><rect class="cls-2" x="198.43" y="207.52" width="14.17" height="14.17"/><rect class="cls-2" x="198.43" y="221.69" width="14.17" height="14.17"/><rect class="cls-2" x="198.43" y="235.87" width="14.17" height="14.17"/><rect class="cls-2" x="212.6" y="207.52" width="14.17" height="14.17"/><rect class="cls-2" x="212.6" y="221.69" width="14.17" height="14.17"/><rect class="cls-2" x="212.6" y="235.87" width="14.17" height="14.17"/><rect class="cls-2" x="226.77" y="207.52" width="14.17" height="14.17"/><rect class="cls-2" x="226.77" y="221.69" width="14.17" height="14.17"/><rect class="cls-2" x="226.77" y="235.87" width="14.17" height="14.17"/><rect class="cls-2" x="240.94" y="207.52" width="14.17" height="14.17"/><rect class="cls-2" x="240.94" y="221.69" width="14.17" height="14.17"/><rect class="cls-2" x="240.94" y="235.87" width="14.17" height="14.17"/><rect class="cls-2" x="255.12" y="207.52" width="14.17" height="14.17"/><rect class="cls-2" x="255.12" y="221.69" width="14.17" height="14.17"/><rect class="cls-2" x="255.12" y="235.87" width="14.17" height="14.17"/><rect class="cls-2" x="70.87" y="250.04" width="14.17" height="14.17"/><rect class="cls-2" x="85.04" y="250.04" width="14.17" height="14.17"/><rect class="cls-2" x="70.87" y="264.21" width="14.17" height="14.17"/><rect class="cls-2" x="85.04" y="264.21" width="14.17" height="14.17"/><rect class="cls-2" x="99.21" y="250.04" width="14.17" height="14.17"/><rect class="cls-2" x="99.21" y="264.21" width="14.17" height="14.17"/><rect class="cls-2" x="113.39" y="250.04" width="14.17" height="14.17"/><rect class="cls-2" x="113.39" y="264.21" width="14.17" height="14.17"/><rect class="cls-2" x="127.56" y="250.04" width="14.17" height="14.17"/><rect class="cls-2" x="127.56" y="264.21" width="14.17" height="14.17"/><rect class="cls-2" x="141.73" y="250.04" width="14.17" height="14.17"/><rect class="cls-2" x="141.73" y="264.21" width="14.17" height="14.17"/><rect class="cls-2" x="155.91" y="250.04" width="14.17" height="14.17"/><rect class="cls-2" x="155.91" y="264.21" width="14.17" height="14.17"/><rect class="cls-2" x="170.08" y="250.04" width="14.17" height="14.17"/><rect class="cls-2" x="170.08" y="264.21" width="14.17" height="14.17"/><rect class="cls-2" x="184.25" y="250.04" width="14.17" height="14.17"/><rect class="cls-2" x="184.25" y="264.21" width="14.17" height="14.17"/><rect class="cls-2" x="198.43" y="250.04" width="14.17" height="14.17"/><rect class="cls-2" x="198.43" y="264.21" width="14.17" height="14.17"/><rect class="cls-2" x="212.6" y="250.04" width="14.17" height="14.17"/><rect class="cls-2" x="212.6" y="264.21" width="14.17" height="14.17"/><rect class="cls-2" x="113.39" y="278.39" width="14.17" height="14.17"/><rect class="cls-2" x="127.56" y="278.39" width="14.17" height="14.17"/><rect class="cls-2" x="141.73" y="278.39" width="14.17" height="14.17"/><rect class="cls-2" x="155.91" y="278.39" width="14.17" height="14.17"/><rect class="cls-2" x="170.08" y="278.39" width="14.17" height="14.17"/><rect class="cls-2" x="184.25" y="278.39" width="14.17" height="14.17"/><rect class="cls-2" x="198.43" y="278.39" width="14.17" height="14.17"/><rect class="cls-2" x="212.6" y="278.39" width="14.17" height="14.17"/><rect class="cls-2" x="127.56" y="292.56" width="14.17" height="14.17"/><rect class="cls-2" x="141.73" y="292.56" width="14.17" height="14.17"/><rect class="cls-2" x="155.91" y="292.56" width="14.17" height="14.17"/><rect class="cls-2" x="170.08" y="292.56" width="14.17" height="14.17"/><rect class="cls-2" x="184.25" y="292.56" width="14.17" height="14.17"/><rect class="cls-2" x="198.43" y="292.56" width="14.17" height="14.17"/><rect class="cls-2" x="212.6" y="292.56" width="14.17" height="14.17"/><rect class="cls-2" x="141.73" y="306.73" width="14.17" height="14.17"/><rect class="cls-2" x="155.91" y="306.73" width="14.17" height="14.17"/><rect class="cls-2" x="170.08" y="306.73" width="14.17" height="14.17"/><rect class="cls-2" x="184.25" y="306.73" width="14.17" height="14.17"/><rect class="cls-2" x="198.43" y="306.73" width="14.17" height="14.17"/><rect class="cls-2" x="212.6" y="306.73" width="14.17" height="14.17"/><rect class="cls-2" x="226.77" y="250.04" width="14.17" height="14.17"/><rect class="cls-2" x="240.94" y="250.04" width="14.17" height="14.17"/><rect class="cls-2" x="226.77" y="264.21" width="14.17" height="14.17"/><rect class="cls-2" x="70.87" y="278.39" width="14.17" height="14.17"/><rect class="cls-2" x="85.04" y="292.56" width="14.17" height="14.17"/><rect class="cls-2" x="99.21" y="306.73" width="14.17" height="14.17"/><rect class="cls-2" x="99.21" y="292.56" width="14.17" height="14.17"/><rect class="cls-2" x="99.21" y="278.39" width="14.17" height="14.17"/><rect class="cls-2" x="85.04" y="278.39" width="14.17" height="14.17"/><rect class="cls-2" x="113.39" y="292.56" width="14.17" height="14.17"/><rect class="cls-2" x="113.39" y="306.73" width="14.17" height="14.17"/><rect class="cls-2" x="127.56" y="306.73" width="14.17" height="14.17"/><rect class="cls-2" x="113.39" y="320.91" width="14.17" height="14.17"/><rect class="cls-2" x="127.56" y="320.91" width="14.17" height="14.17"/><rect class="cls-2" x="141.73" y="335.08" width="14.17" height="14.17"/><rect class="cls-2" x="155.91" y="335.08" width="14.17" height="14.17"/><rect class="cls-2" x="170.08" y="335.08" width="14.17" height="14.17"/><rect class="cls-2" x="184.25" y="335.08" width="14.17" height="14.17"/><rect class="cls-2" x="198.43" y="335.08" width="14.17" height="14.17"/><rect class="cls-2" x="141.73" y="320.91" width="14.17" height="14.17"/><rect class="cls-2" x="155.91" y="320.91" width="14.17" height="14.17"/><rect class="cls-2" x="170.08" y="320.91" width="14.17" height="14.17"/><rect class="cls-2" x="184.25" y="320.91" width="14.17" height="14.17"/><rect class="cls-2" x="198.43" y="320.91" width="14.17" height="14.17"/><rect class="cls-2" x="212.6" y="320.91" width="14.17" height="14.17"/><rect class="cls-2" x="226.77" y="306.73" width="14.17" height="14.17"/><rect class="cls-2" x="226.77" y="292.56" width="14.17" height="14.17"/><rect class="cls-2" x="226.77" y="278.39" width="14.17" height="14.17"/><rect class="cls-2" x="240.94" y="278.39" width="14.17" height="14.17"/><rect class="cls-2" x="240.94" y="264.21" width="14.17" height="14.17"/><rect class="cls-2" x="255.12" y="264.21" width="14.17" height="14.17"/><rect class="cls-2" x="255.12" y="250.04" width="14.17" height="14.17"/><rect class="cls-2" x="127.56" y="193.35" width="14.17" height="14.17"/><rect class="cls-2" x="141.73" y="193.35" width="14.17" height="14.17"/><rect class="cls-2" x="155.91" y="193.35" width="14.17" height="14.17"/><rect class="cls-2" x="170.08" y="193.35" width="14.17" height="14.17"/><rect class="cls-2" x="184.25" y="193.35" width="14.17" height="14.17"/><rect class="cls-2" x="198.43" y="193.35" width="14.17" height="14.17"/><rect class="cls-2" x="212.6" y="193.35" width="14.17" height="14.17"/><rect class="cls-2" x="226.77" y="193.35" width="14.17" height="14.17"/><rect class="cls-2" x="240.94" y="193.35" width="14.17" height="14.17"/><rect class="cls-2" x="255.12" y="193.35" width="14.17" height="14.17"/><rect class="cls-1" x="538.58" y="240.94" width="14.17" height="14.17" transform="translate(963.78 448.47) rotate(-180)"/><rect class="cls-2" x="538.58" y="240.94" width="14.17" height="14.17" transform="translate(963.78 448.47) rotate(-180)"/><rect class="cls-2" x="552.76" y="255.12" width="14.17" height="14.17" transform="translate(992.13 476.81) rotate(-180)"/><rect class="cls-2" x="566.93" y="269.29" width="14.17" height="14.17" transform="translate(1020.47 505.16) rotate(-180)"/><rect class="cls-2" x="552.76" y="269.29" width="14.17" height="14.17" transform="translate(992.13 505.16) rotate(-180)"/><rect class="cls-2" x="581.1" y="283.46" width="14.17" height="14.17" transform="translate(1048.82 533.51) rotate(-180)"/><rect class="cls-2" x="566.93" y="283.46" width="14.17" height="14.17" transform="translate(1020.47 533.51) rotate(-180)"/><rect class="cls-2" x="552.76" y="283.46" width="14.17" height="14.17" transform="translate(992.13 533.51) rotate(-180)"/><rect class="cls-2" x="538.58" y="255.12" width="14.17" height="14.17" transform="translate(963.78 476.81) rotate(-180)"/><rect class="cls-2" x="538.58" y="269.29" width="14.17" height="14.17" transform="translate(963.78 505.16) rotate(-180)"/><rect class="cls-2" x="538.58" y="283.46" width="14.17" height="14.17" transform="translate(963.78 533.51) rotate(-180)"/><rect class="cls-2" x="524.41" y="255.12" width="14.17" height="14.17" transform="translate(935.43 476.81) rotate(-180)"/><rect class="cls-2" x="524.41" y="269.29" width="14.17" height="14.17" transform="translate(935.43 505.16) rotate(-180)"/><rect class="cls-2" x="524.41" y="283.46" width="14.17" height="14.17" transform="translate(935.43 533.51) rotate(-180)"/><rect class="cls-2" x="510.24" y="255.12" width="14.17" height="14.17" transform="translate(907.09 476.81) rotate(-180)"/><rect class="cls-2" x="510.24" y="269.29" width="14.17" height="14.17" transform="translate(907.09 505.16) rotate(-180)"/><rect class="cls-2" x="510.24" y="283.46" width="14.17" height="14.17" transform="translate(907.09 533.51) rotate(-180)"/><rect class="cls-2" x="496.06" y="255.12" width="14.17" height="14.17" transform="translate(878.74 476.81) rotate(-180)"/><rect class="cls-2" x="496.06" y="269.29" width="14.17" height="14.17" transform="translate(878.74 505.16) rotate(-180)"/><rect class="cls-2" x="496.06" y="283.46" width="14.17" height="14.17" transform="translate(878.74 533.51) rotate(-180)"/><rect class="cls-2" x="481.89" y="255.12" width="14.17" height="14.17" transform="translate(850.39 476.81) rotate(-180)"/><rect class="cls-2" x="481.89" y="269.29" width="14.17" height="14.17" transform="translate(850.39 505.16) rotate(-180)"/><rect class="cls-2" x="481.89" y="283.46" width="14.17" height="14.17" transform="translate(850.39 533.51) rotate(-180)"/><rect class="cls-2" x="467.72" y="255.12" width="14.17" height="14.17" transform="translate(822.05 476.81) rotate(-180)"/><rect class="cls-2" x="467.72" y="269.29" width="14.17" height="14.17" transform="translate(822.05 505.16) rotate(-180)"/><rect class="cls-2" x="467.72" y="283.46" width="14.17" height="14.17" transform="translate(822.05 533.51) rotate(-180)"/><rect class="cls-2" x="453.54" y="255.12" width="14.17" height="14.17" transform="translate(793.7 476.81) rotate(-180)"/><rect class="cls-2" x="453.54" y="269.29" width="14.17" height="14.17" transform="translate(793.7 505.16) rotate(-180)"/><rect class="cls-2" x="453.54" y="283.46" width="14.17" height="14.17" transform="translate(793.7 533.51) rotate(-180)"/><rect class="cls-2" x="439.37" y="255.12" width="14.17" height="14.17" transform="translate(765.35 476.81) rotate(-180)"/><rect class="cls-2" x="439.37" y="269.29" width="14.17" height="14.17" transform="translate(765.35 505.16) rotate(-180)"/><rect class="cls-2" x="439.37" y="283.46" width="14.17" height="14.17" transform="translate(765.35 533.51) rotate(-180)"/><rect class="cls-2" x="425.2" y="255.12" width="14.17" height="14.17" transform="translate(737.01 476.81) rotate(-180)"/><rect class="cls-2" x="425.2" y="269.29" width="14.17" height="14.17" transform="translate(737.01 505.16) rotate(-180)"/><rect class="cls-2" x="425.2" y="283.46" width="14.17" height="14.17" transform="translate(737.01 533.51) rotate(-180)"/><rect class="cls-2" x="411.02" y="255.12" width="14.17" height="14.17" transform="translate(708.66 476.81) rotate(-180)"/><rect class="cls-2" x="411.02" y="269.29" width="14.17" height="14.17" transform="translate(708.66 505.16) rotate(-180)"/><rect class="cls-2" x="411.02" y="283.46" width="14.17" height="14.17" transform="translate(708.66 533.51) rotate(-180)"/><rect class="cls-2" x="552.76" y="297.64" width="14.17" height="14.17" transform="translate(992.13 561.85) rotate(-180)"/><rect class="cls-2" x="538.58" y="297.64" width="14.17" height="14.17" transform="translate(963.78 561.85) rotate(-180)"/><rect class="cls-2" x="524.41" y="297.64" width="14.17" height="14.17" transform="translate(935.43 561.85) rotate(-180)"/><rect class="cls-2" x="510.24" y="297.64" width="14.17" height="14.17" transform="translate(907.09 561.85) rotate(-180)"/><rect class="cls-2" x="496.06" y="297.64" width="14.17" height="14.17" transform="translate(878.74 561.85) rotate(-180)"/><rect class="cls-2" x="481.89" y="297.64" width="14.17" height="14.17" transform="translate(850.39 561.85) rotate(-180)"/><rect class="cls-2" x="467.72" y="297.64" width="14.17" height="14.17" transform="translate(822.05 561.85) rotate(-180)"/><rect class="cls-2" x="453.54" y="297.64" width="14.17" height="14.17" transform="translate(793.7 561.85) rotate(-180)"/><rect class="cls-2" x="439.37" y="297.64" width="14.17" height="14.17" transform="translate(765.35 561.85) rotate(-180)"/><rect class="cls-2" x="425.2" y="297.64" width="14.17" height="14.17" transform="translate(737.01 561.85) rotate(-180)"/><rect class="cls-2" x="552.76" y="311.81" width="14.17" height="14.17" transform="translate(992.13 590.2) rotate(-180)"/><rect class="cls-2" x="538.58" y="311.81" width="14.17" height="14.17" transform="translate(963.78 590.2) rotate(-180)"/><rect class="cls-2" x="524.41" y="311.81" width="14.17" height="14.17" transform="translate(935.43 590.2) rotate(-180)"/><rect class="cls-2" x="510.24" y="311.81" width="14.17" height="14.17" transform="translate(907.09 590.2) rotate(-180)"/><rect class="cls-2" x="496.06" y="311.81" width="14.17" height="14.17" transform="translate(878.74 590.2) rotate(-180)"/><rect class="cls-2" x="481.89" y="311.81" width="14.17" height="14.17" transform="translate(850.39 590.2) rotate(-180)"/><rect class="cls-2" x="467.72" y="311.81" width="14.17" height="14.17" transform="translate(822.05 590.2) rotate(-180)"/><rect class="cls-2" x="453.54" y="311.81" width="14.17" height="14.17" transform="translate(793.7 590.2) rotate(-180)"/><rect class="cls-2" x="439.37" y="311.81" width="14.17" height="14.17" transform="translate(765.35 590.2) rotate(-180)"/><rect class="cls-2" x="552.76" y="325.98" width="14.17" height="14.17" transform="translate(992.13 618.54) rotate(-180)"/><rect class="cls-2" x="538.58" y="325.98" width="14.17" height="14.17" transform="translate(963.78 618.54) rotate(-180)"/><rect class="cls-2" x="524.41" y="325.98" width="14.17" height="14.17" transform="translate(935.43 618.54) rotate(-180)"/><rect class="cls-2" x="510.24" y="325.98" width="14.17" height="14.17" transform="translate(907.09 618.54) rotate(-180)"/><rect class="cls-2" x="496.06" y="325.98" width="14.17" height="14.17" transform="translate(878.74 618.54) rotate(-180)"/><rect class="cls-2" x="481.89" y="325.98" width="14.17" height="14.17" transform="translate(850.39 618.54) rotate(-180)"/><rect class="cls-2" x="467.72" y="325.98" width="14.17" height="14.17" transform="translate(822.05 618.54) rotate(-180)"/><rect class="cls-2" x="453.54" y="325.98" width="14.17" height="14.17" transform="translate(793.7 618.54) rotate(-180)"/><rect class="cls-2" x="439.37" y="325.98" width="14.17" height="14.17" transform="translate(765.35 618.54) rotate(-180)"/><rect class="cls-2" x="524.41" y="340.16" width="14.17" height="14.17" transform="translate(935.43 646.89) rotate(-180)"/><rect class="cls-2" x="510.24" y="340.16" width="14.17" height="14.17" transform="translate(907.09 646.89) rotate(-180)"/><rect class="cls-2" x="496.06" y="340.16" width="14.17" height="14.17" transform="translate(878.74 646.89) rotate(-180)"/><rect class="cls-2" x="481.89" y="340.16" width="14.17" height="14.17" transform="translate(850.39 646.89) rotate(-180)"/><rect class="cls-2" x="467.72" y="340.16" width="14.17" height="14.17" transform="translate(822.05 646.89) rotate(-180)"/><rect class="cls-2" x="453.54" y="340.16" width="14.17" height="14.17" transform="translate(793.7 646.89) rotate(-180)"/><rect class="cls-2" x="510.24" y="354.33" width="14.17" height="14.17" transform="translate(907.09 675.24) rotate(-180)"/><rect class="cls-2" x="496.06" y="354.33" width="14.17" height="14.17" transform="translate(878.74 675.24) rotate(-180)"/><rect class="cls-2" x="481.89" y="354.33" width="14.17" height="14.17" transform="translate(850.39 675.24) rotate(-180)"/><rect class="cls-2" x="467.72" y="354.33" width="14.17" height="14.17" transform="translate(822.05 675.24) rotate(-180)"/><rect class="cls-2" x="453.54" y="354.33" width="14.17" height="14.17" transform="translate(793.7 675.24) rotate(-180)"/><rect class="cls-2" x="439.37" y="340.16" width="14.17" height="14.17" transform="translate(765.35 646.89) rotate(-180)"/><rect class="cls-2" x="425.2" y="311.81" width="14.17" height="14.17" transform="translate(737.01 590.2) rotate(-180)"/><rect class="cls-2" x="411.02" y="297.64" width="14.17" height="14.17" transform="translate(708.66 561.85) rotate(-180)"/><rect class="cls-2" x="396.85" y="255.12" width="14.17" height="14.17" transform="translate(680.31 476.81) rotate(-180)"/><rect class="cls-2" x="396.85" y="269.29" width="14.17" height="14.17" transform="translate(680.31 505.16) rotate(-180)"/><rect class="cls-2" x="396.85" y="283.46" width="14.17" height="14.17" transform="translate(680.31 533.51) rotate(-180)"/><rect class="cls-2" x="581.1" y="297.64" width="14.17" height="14.17" transform="translate(1048.82 561.85) rotate(-180)"/><rect class="cls-2" x="566.93" y="297.64" width="14.17" height="14.17" transform="translate(1020.47 561.85) rotate(-180)"/><rect class="cls-2" x="581.1" y="311.81" width="14.17" height="14.17" transform="translate(1048.82 590.2) rotate(-180)"/><rect class="cls-2" x="566.93" y="311.81" width="14.17" height="14.17" transform="translate(1020.47 590.2) rotate(-180)"/><rect class="cls-2" x="581.1" y="325.98" width="14.17" height="14.17" transform="translate(1048.82 618.54) rotate(-180)"/><rect class="cls-2" x="566.93" y="340.16" width="14.17" height="14.17" transform="translate(1020.47 646.89) rotate(-180)"/><rect class="cls-2" x="552.76" y="354.33" width="14.17" height="14.17" transform="translate(992.13 675.24) rotate(-180)"/><rect class="cls-2" x="552.76" y="340.16" width="14.17" height="14.17" transform="translate(992.13 646.89) rotate(-180)"/><rect class="cls-2" x="566.93" y="325.98" width="14.17" height="14.17" transform="translate(1020.47 618.54) rotate(-180)"/><rect class="cls-2" x="538.58" y="340.16" width="14.17" height="14.17" transform="translate(963.78 646.89) rotate(-180)"/><rect class="cls-2" x="538.58" y="354.33" width="14.17" height="14.17" transform="translate(963.78 675.24) rotate(-180)"/><rect class="cls-2" x="524.41" y="354.33" width="14.17" height="14.17" transform="translate(935.43 675.24) rotate(-180)"/><rect class="cls-2" x="538.58" y="368.5" width="14.17" height="14.17" transform="translate(963.78 703.58) rotate(-180)"/><rect class="cls-2" x="524.41" y="368.5" width="14.17" height="14.17" transform="translate(935.43 703.58) rotate(-180)"/><rect class="cls-2" x="510.24" y="382.68" width="14.17" height="14.17" transform="translate(907.09 731.93) rotate(-180)"/><rect class="cls-2" x="496.06" y="382.68" width="14.17" height="14.17" transform="translate(878.74 731.93) rotate(-180)"/><rect class="cls-2" x="481.89" y="382.68" width="14.17" height="14.17" transform="translate(850.39 731.93) rotate(-180)"/><rect class="cls-2" x="467.72" y="382.68" width="14.17" height="14.17" transform="translate(822.05 731.93) rotate(-180)"/><rect class="cls-2" x="453.54" y="382.68" width="14.17" height="14.17" transform="translate(793.7 731.93) rotate(-180)"/><rect class="cls-2" x="510.24" y="368.5" width="14.17" height="14.17" transform="translate(907.09 703.58) rotate(-180)"/><rect class="cls-2" x="496.06" y="368.5" width="14.17" height="14.17" transform="translate(878.74 703.58) rotate(-180)"/><rect class="cls-2" x="481.89" y="368.5" width="14.17" height="14.17" transform="translate(850.39 703.58) rotate(-180)"/><rect class="cls-2" x="467.72" y="368.5" width="14.17" height="14.17" transform="translate(822.05 703.58) rotate(-180)"/><rect class="cls-2" x="453.54" y="368.5" width="14.17" height="14.17" transform="translate(793.7 703.58) rotate(-180)"/><rect class="cls-2" x="439.37" y="368.5" width="14.17" height="14.17" transform="translate(765.35 703.58) rotate(-180)"/><rect class="cls-2" x="439.37" y="354.33" width="14.17" height="14.17" transform="translate(765.35 675.24) rotate(-180)"/><rect class="cls-2" x="425.2" y="354.33" width="14.17" height="14.17" transform="translate(737.01 675.24) rotate(-180)"/><rect class="cls-2" x="425.2" y="340.16" width="14.17" height="14.17" transform="translate(737.01 646.89) rotate(-180)"/><rect class="cls-2" x="425.2" y="325.98" width="14.17" height="14.17" transform="translate(737.01 618.54) rotate(-180)"/><rect class="cls-2" x="411.02" y="325.98" width="14.17" height="14.17" transform="translate(708.66 618.54) rotate(-180)"/><rect class="cls-2" x="411.02" y="311.81" width="14.17" height="14.17" transform="translate(708.66 590.2) rotate(-180)"/><rect class="cls-2" x="396.85" y="311.81" width="14.17" height="14.17" transform="translate(680.31 590.2) rotate(-180)"/><rect class="cls-2" x="396.85" y="297.64" width="14.17" height="14.17" transform="translate(680.31 561.85) rotate(-180)"/><rect class="cls-2" x="524.41" y="240.94" width="14.17" height="14.17" transform="translate(935.43 448.47) rotate(-180)"/><rect class="cls-2" x="510.24" y="240.94" width="14.17" height="14.17" transform="translate(907.09 448.47) rotate(-180)"/><rect class="cls-2" x="496.06" y="240.94" width="14.17" height="14.17" transform="translate(878.74 448.47) rotate(-180)"/><rect class="cls-2" x="481.89" y="240.94" width="14.17" height="14.17" transform="translate(850.39 448.47) rotate(-180)"/><rect class="cls-2" x="467.72" y="240.94" width="14.17" height="14.17" transform="translate(822.05 448.47) rotate(-180)"/><rect class="cls-2" x="453.54" y="240.94" width="14.17" height="14.17" transform="translate(793.7 448.47) rotate(-180)"/><rect class="cls-2" x="439.37" y="240.94" width="14.17" height="14.17" transform="translate(765.35 448.47) rotate(-180)"/><rect class="cls-2" x="425.2" y="240.94" width="14.17" height="14.17" transform="translate(737.01 448.47) rotate(-180)"/><rect class="cls-2" x="411.02" y="240.94" width="14.17" height="14.17" transform="translate(708.66 448.47) rotate(-180)"/><rect class="cls-2" x="396.85" y="240.94" width="14.17" height="14.17" transform="translate(680.31 448.47) rotate(-180)"/><rect class="cls-3" x="99.21" y="250.04" width="14.17" height="14.17"/><rect class="cls-3" x="81.5" y="250.04" width="7.09" height="28.86"/><rect class="cls-3" x="113.39" y="250.04" width="14.17" height="14.17"/><rect class="cls-3" x="127.56" y="250.04" width="14.17" height="14.17"/><rect class="cls-3" x="141.73" y="250.04" width="14.17" height="14.17"/><rect class="cls-3" x="155.91" y="250.04" width="14.17" height="14.17"/><rect class="cls-3" x="170.08" y="250.04" width="14.17" height="14.17"/><rect class="cls-3" x="184.25" y="250.04" width="14.17" height="14.17"/><rect class="cls-3" x="198.43" y="250.04" width="14.17" height="14.17"/><rect class="cls-3" x="212.6" y="250.04" width="14.17" height="14.17"/><rect class="cls-3" x="226.77" y="250.04" width="14.17" height="14.17"/><rect class="cls-3" x="99.21" y="264.21" width="14.17" height="14.17"/><rect class="cls-3" x="113.39" y="264.21" width="14.17" height="14.17"/><rect class="cls-3" x="127.56" y="264.21" width="14.17" height="14.17"/><rect class="cls-3" x="141.73" y="264.21" width="14.17" height="14.17"/><rect class="cls-3" x="155.91" y="264.21" width="14.17" height="14.17"/><rect class="cls-3" x="170.08" y="264.21" width="14.17" height="14.17"/><rect class="cls-3" x="184.25" y="264.21" width="14.17" height="14.17"/><rect class="cls-3" x="198.43" y="264.21" width="14.17" height="14.17"/><rect class="cls-3" x="212.6" y="264.21" width="14.17" height="14.17"/><rect class="cls-3" x="226.77" y="264.21" width="14.17" height="14.17"/><rect class="cls-3" x="113.39" y="278.39" width="14.17" height="14.17"/><rect class="cls-3" x="127.56" y="278.39" width="14.17" height="14.17"/><rect class="cls-3" x="141.73" y="278.39" width="14.17" height="14.17"/><rect class="cls-3" x="155.91" y="278.39" width="14.17" height="14.17"/><rect class="cls-3" x="170.08" y="278.39" width="14.17" height="14.17"/><rect class="cls-3" x="184.25" y="278.39" width="14.17" height="14.17"/><rect class="cls-3" x="198.43" y="278.39" width="14.17" height="14.17"/><rect class="cls-3" x="212.6" y="278.39" width="14.17" height="14.17"/><rect class="cls-3" x="127.56" y="292.56" width="14.17" height="14.17"/><rect class="cls-3" x="141.73" y="292.56" width="14.17" height="14.17"/><rect class="cls-3" x="155.91" y="292.56" width="14.17" height="14.17"/><rect class="cls-3" x="170.08" y="292.56" width="14.17" height="14.17"/><rect class="cls-3" x="184.25" y="292.56" width="14.17" height="14.17"/><rect class="cls-3" x="198.43" y="292.56" width="14.17" height="14.17"/><rect class="cls-3" x="212.6" y="292.56" width="14.17" height="14.17"/><rect class="cls-3" x="141.73" y="306.73" width="14.17" height="14.17"/><rect class="cls-3" x="155.91" y="306.73" width="14.17" height="14.17"/><rect class="cls-3" x="170.08" y="306.73" width="14.17" height="14.17"/><rect class="cls-3" x="184.25" y="306.73" width="14.17" height="14.17"/><rect class="cls-3" x="198.43" y="306.73" width="14.17" height="14.17"/><rect class="cls-3" x="240.94" y="250.04" width="14.17" height="14.17"/><rect class="cls-3" x="552.76" y="297.64" width="14.17" height="14.17" transform="translate(992.13 561.85) rotate(-180)"/><rect class="cls-3" x="577.56" y="297.64" width="7.09" height="28.86" transform="translate(1034.65 576.54) rotate(-180)"/><rect class="cls-3" x="538.58" y="297.64" width="14.17" height="14.17" transform="translate(963.78 561.85) rotate(-180)"/><rect class="cls-3" x="524.41" y="297.64" width="14.17" height="14.17" transform="translate(935.43 561.85) rotate(-180)"/><rect class="cls-3" x="510.24" y="297.64" width="14.17" height="14.17" transform="translate(907.09 561.85) rotate(-180)"/><rect class="cls-3" x="496.06" y="297.64" width="14.17" height="14.17" transform="translate(878.74 561.85) rotate(-180)"/><rect class="cls-3" x="481.89" y="297.64" width="14.17" height="14.17" transform="translate(850.39 561.85) rotate(-180)"/><rect class="cls-3" x="467.72" y="297.64" width="14.17" height="14.17" transform="translate(822.05 561.85) rotate(-180)"/><rect class="cls-3" x="453.54" y="297.64" width="14.17" height="14.17" transform="translate(793.7 561.85) rotate(-180)"/><rect class="cls-3" x="439.37" y="297.64" width="14.17" height="14.17" transform="translate(765.35 561.85) rotate(-180)"/><rect class="cls-3" x="425.2" y="297.64" width="14.17" height="14.17" transform="translate(737.01 561.85) rotate(-180)"/><rect class="cls-3" x="552.76" y="311.81" width="14.17" height="14.17" transform="translate(992.13 590.2) rotate(-180)"/><rect class="cls-3" x="538.58" y="311.81" width="14.17" height="14.17" transform="translate(963.78 590.2) rotate(-180)"/><rect class="cls-3" x="524.41" y="311.81" width="14.17" height="14.17" transform="translate(935.43 590.2) rotate(-180)"/><rect class="cls-3" x="510.24" y="311.81" width="14.17" height="14.17" transform="translate(907.09 590.2) rotate(-180)"/><rect class="cls-3" x="496.06" y="311.81" width="14.17" height="14.17" transform="translate(878.74 590.2) rotate(-180)"/><rect class="cls-3" x="481.89" y="311.81" width="14.17" height="14.17" transform="translate(850.39 590.2) rotate(-180)"/><rect class="cls-3" x="467.72" y="311.81" width="14.17" height="14.17" transform="translate(822.05 590.2) rotate(-180)"/><rect class="cls-3" x="453.54" y="311.81" width="14.17" height="14.17" transform="translate(793.7 590.2) rotate(-180)"/><rect class="cls-3" x="439.37" y="311.81" width="14.17" height="14.17" transform="translate(765.35 590.2) rotate(-180)"/><rect class="cls-3" x="425.2" y="311.81" width="14.17" height="14.17" transform="translate(737.01 590.2) rotate(-180)"/><rect class="cls-3" x="538.58" y="325.98" width="14.17" height="14.17" transform="translate(963.78 618.54) rotate(-180)"/><rect class="cls-3" x="524.41" y="325.98" width="14.17" height="14.17" transform="translate(935.43 618.54) rotate(-180)"/><rect class="cls-3" x="510.24" y="325.98" width="14.17" height="14.17" transform="translate(907.09 618.54) rotate(-180)"/><rect class="cls-3" x="496.06" y="325.98" width="14.17" height="14.17" transform="translate(878.74 618.54) rotate(-180)"/><rect class="cls-3" x="481.89" y="325.98" width="14.17" height="14.17" transform="translate(850.39 618.54) rotate(-180)"/><rect class="cls-3" x="467.72" y="325.98" width="14.17" height="14.17" transform="translate(822.05 618.54) rotate(-180)"/><rect class="cls-3" x="453.54" y="325.98" width="14.17" height="14.17" transform="translate(793.7 618.54) rotate(-180)"/><rect class="cls-3" x="439.37" y="325.98" width="14.17" height="14.17" transform="translate(765.35 618.54) rotate(-180)"/><rect class="cls-3" x="524.41" y="340.16" width="14.17" height="14.17" transform="translate(935.43 646.89) rotate(-180)"/><rect class="cls-3" x="510.24" y="340.16" width="14.17" height="14.17" transform="translate(907.09 646.89) rotate(-180)"/><rect class="cls-3" x="496.06" y="340.16" width="14.17" height="14.17" transform="translate(878.74 646.89) rotate(-180)"/><rect class="cls-3" x="481.89" y="340.16" width="14.17" height="14.17" transform="translate(850.39 646.89) rotate(-180)"/><rect class="cls-3" x="467.72" y="340.16" width="14.17" height="14.17" transform="translate(822.05 646.89) rotate(-180)"/><rect class="cls-3" x="453.54" y="340.16" width="14.17" height="14.17" transform="translate(793.7 646.89) rotate(-180)"/><rect class="cls-3" x="439.37" y="340.16" width="14.17" height="14.17" transform="translate(765.35 646.89) rotate(-180)"/><rect class="cls-3" x="510.24" y="354.33" width="14.17" height="14.17" transform="translate(907.09 675.24) rotate(-180)"/><rect class="cls-3" x="496.06" y="354.33" width="14.17" height="14.17" transform="translate(878.74 675.24) rotate(-180)"/><rect class="cls-3" x="481.89" y="354.33" width="14.17" height="14.17" transform="translate(850.39 675.24) rotate(-180)"/><rect class="cls-3" x="467.72" y="354.33" width="14.17" height="14.17" transform="translate(822.05 675.24) rotate(-180)"/><rect class="cls-3" x="453.54" y="354.33" width="14.17" height="14.17" transform="translate(793.7 675.24) rotate(-180)"/><rect class="cls-3" x="411.02" y="297.64" width="14.17" height="14.17" transform="translate(708.66 561.85) rotate(-180)"/><rect class="cls-4" x="255.12" y="283.46" width="14.17" height="14.17" transform="translate(396.85 533.51) rotate(-180)"/><rect class="cls-4" x="283.46" y="262.29" width="14.17" height="14.17" transform="translate(453.54 491.16) rotate(-180)"/><rect class="cls-4" x="325.98" y="262.29" width="14.17" height="14.17" transform="translate(538.58 491.16) rotate(-180)"/><rect class="cls-4" x="368.5" y="240.94" width="14.17" height="14.17" transform="translate(623.62 448.47) rotate(-180)"/><rect class="cls-4" x="396.85" y="235.87" width="14.17" height="14.17"/><rect class="cls-4" x="368.5" y="214.69" width="14.17" height="14.17"/><rect class="cls-4" x="325.98" y="214.69" width="14.17" height="14.17"/><rect class="cls-4" x="283.46" y="193.35" width="14.17" height="14.17"/><rect class="cls-5" x="240.94" y="235.87" width="14.17" height="14.17"/><rect class="cls-5" x="198.43" y="214.61" width="14.17" height="14.17"/><rect class="cls-5" x="155.91" y="214.61" width="14.17" height="14.17"/><rect class="cls-5" x="127.56" y="193.35" width="14.17" height="14.17"/><rect class="cls-5" x="411.02" y="283.46" width="14.17" height="14.17" transform="translate(708.66 533.51) rotate(-180)"/><rect class="cls-5" x="453.54" y="262.2" width="14.17" height="14.17" transform="translate(793.7 490.99) rotate(-180)"/><rect class="cls-5" x="496.06" y="262.2" width="14.17" height="14.17" transform="translate(878.74 490.99) rotate(-180)"/><rect class="cls-5" x="524.41" y="240.95" width="14.17" height="14.17" transform="translate(935.43 448.47) rotate(-180)"/><rect class="cls-6" x="198.43" y="214.61" width="14.17" height="14.17"/><rect class="cls-6" x="155.91" y="214.61" width="14.17" height="14.17"/><rect class="cls-6" x="368.5" y="214.61" width="14.17" height="14.17"/><rect class="cls-6" x="325.98" y="214.61" width="14.17" height="14.17"/><rect class="cls-2" x="14.21" y="94.31" width="14.17" height="14.17"/><rect class="cls-2" x="28.38" y="94.31" width="14.17" height="14.17"/><rect class="cls-2" x="42.55" y="94.31" width="14.17" height="14.17"/><rect class="cls-2" x="56.73" y="94.31" width="14.17" height="14.17"/><rect class="cls-2" x="70.9" y="94.31" width="14.17" height="14.17"/><rect class="cls-2" x="14.21" y="108.31" width="14.17" height="14.17"/><rect class="cls-2" x="28.38" y="108.31" width="14.17" height="14.17"/><rect class="cls-2" x="0.03" y="94.23" width="14.17" height="14.17"/><rect class="cls-2" x="0.03" y="108.23" width="14.17" height="14.17"/><rect class="cls-2" x="42.55" y="108.31" width="14.17" height="14.17"/><rect class="cls-2" x="56.73" y="108.31" width="14.17" height="14.17"/><rect class="cls-2" x="70.9" y="108.31" width="14.17" height="14.17"/><rect class="cls-2" x="70.9" y="66.23" width="14.17" height="14.17"/><rect class="cls-2" x="85.07" y="66.23" width="14.17" height="14.17"/><rect class="cls-2" x="99.24" y="66.23" width="14.17" height="14.17"/><rect class="cls-2" x="113.42" y="66.23" width="14.17" height="14.17"/><rect class="cls-2" x="127.59" y="66.23" width="14.17" height="14.17"/><rect class="cls-2" x="141.76" y="66.23" width="14.17" height="14.17"/><rect class="cls-2" x="70.9" y="80.23" width="14.17" height="14.17"/><rect class="cls-2" x="56.73" y="66.31" width="14.17" height="14.17"/><rect class="cls-2" x="56.73" y="80.31" width="14.17" height="14.17"/><rect class="cls-2" x="85.07" y="80.23" width="14.17" height="14.17"/><rect class="cls-2" x="99.24" y="80.23" width="14.17" height="14.17"/><rect class="cls-2" x="113.42" y="80.23" width="14.17" height="14.17"/><rect class="cls-2" x="127.59" y="80.23" width="14.17" height="14.17"/><rect class="cls-2" x="141.76" y="80.23" width="14.17" height="14.17"/><rect class="cls-2" x="155.94" y="66.23" width="14.17" height="14.17"/><rect class="cls-2" x="170.11" y="66.23" width="14.17" height="14.17"/><rect class="cls-2" x="184.28" y="66.23" width="14.17" height="14.17"/><rect class="cls-2" x="198.46" y="66.23" width="14.17" height="14.17"/><rect class="cls-2" x="212.63" y="66.23" width="14.17" height="14.17"/><rect class="cls-2" x="226.8" y="66.23" width="14.17" height="14.17"/><rect class="cls-2" x="155.94" y="80.23" width="14.17" height="14.17"/><rect class="cls-2" x="170.11" y="80.23" width="14.17" height="14.17"/><rect class="cls-2" x="184.28" y="80.23" width="14.17" height="14.17"/><rect class="cls-2" x="198.46" y="80.23" width="14.17" height="14.17"/><rect class="cls-2" x="212.63" y="80.23" width="14.17" height="14.17"/><rect class="cls-2" x="226.8" y="80.23" width="14.17" height="14.17"/><rect class="cls-2" x="240.98" y="66.23" width="14.17" height="14.17"/><rect class="cls-2" x="255.15" y="66.23" width="14.17" height="14.17"/><rect class="cls-2" x="269.32" y="66.23" width="14.17" height="14.17"/><rect class="cls-2" x="283.5" y="66.23" width="14.17" height="14.17"/><rect class="cls-2" x="297.67" y="66.23" width="14.17" height="14.17"/><rect class="cls-2" x="311.84" y="66.23" width="14.17" height="14.17"/><rect class="cls-2" x="240.98" y="80.23" width="14.17" height="14.17"/><rect class="cls-2" x="255.15" y="80.23" width="14.17" height="14.17"/><rect class="cls-2" x="269.32" y="80.23" width="14.17" height="14.17"/><rect class="cls-2" x="283.5" y="80.23" width="14.17" height="14.17"/><rect class="cls-2" x="297.67" y="80.23" width="14.17" height="14.17"/><rect class="cls-2" x="311.84" y="80.23" width="14.17" height="14.17"/><rect class="cls-2" x="326.02" y="66.23" width="14.17" height="14.17"/><rect class="cls-2" x="340.19" y="66.23" width="14.17" height="14.17"/><rect class="cls-2" x="354.36" y="66.23" width="14.17" height="14.17"/><rect class="cls-2" x="368.54" y="66.23" width="14.17" height="14.17"/><rect class="cls-2" x="382.71" y="66.23" width="14.17" height="14.17"/><rect class="cls-2" x="396.88" y="66.23" width="14.17" height="14.17"/><rect class="cls-2" x="326.02" y="80.23" width="14.17" height="14.17"/><rect class="cls-2" x="340.19" y="80.23" width="14.17" height="14.17"/><rect class="cls-2" x="354.36" y="80.23" width="14.17" height="14.17"/><rect class="cls-2" x="368.54" y="80.23" width="14.17" height="14.17"/><rect class="cls-2" x="382.71" y="80.23" width="14.17" height="14.17"/><rect class="cls-2" x="396.88" y="80.23" width="14.17" height="14.17"/><rect class="cls-2" x="411.06" y="66.14" width="14.17" height="14.17"/><rect class="cls-2" x="411.06" y="80.14" width="14.17" height="14.17"/><rect class="cls-2" x="524.41" y="75.77" width="14.17" height="14.17" transform="translate(935.43 118.12) rotate(-180)"/><rect class="cls-2" x="510.24" y="75.77" width="14.17" height="14.17" transform="translate(907.09 118.12) rotate(-180)"/><rect class="cls-2" x="496.06" y="75.77" width="14.17" height="14.17" transform="translate(878.74 118.12) rotate(-180)"/><rect class="cls-2" x="481.89" y="75.77" width="14.17" height="14.17" transform="translate(850.39 118.12) rotate(-180)"/><rect class="cls-2" x="467.72" y="75.77" width="14.17" height="14.17" transform="translate(822.05 118.12) rotate(-180)"/><rect class="cls-2" x="524.41" y="89.77" width="14.17" height="14.17" transform="translate(935.43 146.12) rotate(-180)"/><rect class="cls-2" x="510.24" y="89.77" width="14.17" height="14.17" transform="translate(907.09 146.12) rotate(-180)"/><rect class="cls-2" x="538.58" y="75.68" width="14.17" height="14.17" transform="translate(963.78 117.94) rotate(-180)"/><rect class="cls-2" x="538.58" y="89.68" width="14.17" height="14.17" transform="translate(963.78 145.94) rotate(-180)"/><rect class="cls-2" x="496.06" y="89.77" width="14.17" height="14.17" transform="translate(878.74 146.12) rotate(-180)"/><rect class="cls-2" x="481.89" y="89.77" width="14.17" height="14.17" transform="translate(850.39 146.12) rotate(-180)"/><rect class="cls-2" x="467.72" y="89.77" width="14.17" height="14.17" transform="translate(822.05 146.12) rotate(-180)"/><rect class="cls-2" x="467.72" y="47.68" width="14.17" height="14.17" transform="translate(822.05 61.94) rotate(-180)"/><rect class="cls-2" x="453.54" y="47.68" width="14.17" height="14.17" transform="translate(793.7 61.94) rotate(-180)"/><rect class="cls-2" x="439.37" y="47.68" width="14.17" height="14.17" transform="translate(765.35 61.94) rotate(-180)"/><rect class="cls-2" x="425.2" y="47.68" width="14.17" height="14.17" transform="translate(737.01 61.94) rotate(-180)"/><rect class="cls-2" x="411.02" y="47.68" width="14.17" height="14.17" transform="translate(708.66 61.94) rotate(-180)"/><rect class="cls-2" x="396.85" y="47.68" width="14.17" height="14.17" transform="translate(680.31 61.94) rotate(-180)"/><rect class="cls-2" x="467.72" y="61.68" width="14.17" height="14.17" transform="translate(822.05 89.94) rotate(-180)"/><rect class="cls-2" x="481.89" y="47.77" width="14.17" height="14.17" transform="translate(850.39 62.12) rotate(-180)"/><rect class="cls-2" x="481.89" y="61.77" width="14.17" height="14.17" transform="translate(850.39 90.12) rotate(-180)"/><rect class="cls-2" x="453.54" y="61.68" width="14.17" height="14.17" transform="translate(793.7 89.94) rotate(-180)"/><rect class="cls-2" x="439.37" y="61.68" width="14.17" height="14.17" transform="translate(765.35 89.94) rotate(-180)"/><rect class="cls-2" x="425.2" y="61.68" width="14.17" height="14.17" transform="translate(737.01 89.94) rotate(-180)"/><rect class="cls-2" x="411.02" y="61.68" width="14.17" height="14.17" transform="translate(708.66 89.94) rotate(-180)"/><rect class="cls-2" x="396.85" y="61.68" width="14.17" height="14.17" transform="translate(680.31 89.94) rotate(-180)"/><rect class="cls-2" x="382.68" y="47.68" width="14.17" height="14.17" transform="translate(651.97 61.94) rotate(-180)"/><rect class="cls-2" x="368.5" y="47.68" width="14.17" height="14.17" transform="translate(623.62 61.94) rotate(-180)"/><rect class="cls-2" x="354.33" y="47.68" width="14.17" height="14.17" transform="translate(595.28 61.94) rotate(-180)"/><rect class="cls-2" x="340.16" y="47.68" width="14.17" height="14.17" transform="translate(566.93 61.94) rotate(-180)"/><rect class="cls-2" x="325.98" y="47.68" width="14.17" height="14.17" transform="translate(538.58 61.94) rotate(-180)"/><rect class="cls-2" x="311.81" y="47.68" width="14.17" height="14.17" transform="translate(510.24 61.94) rotate(-180)"/><rect class="cls-2" x="382.68" y="61.68" width="14.17" height="14.17" transform="translate(651.97 89.94) rotate(-180)"/><rect class="cls-2" x="368.5" y="61.68" width="14.17" height="14.17" transform="translate(623.62 89.94) rotate(-180)"/><rect class="cls-2" x="354.33" y="61.68" width="14.17" height="14.17" transform="translate(595.28 89.94) rotate(-180)"/><rect class="cls-2" x="340.16" y="61.68" width="14.17" height="14.17" transform="translate(566.93 89.94) rotate(-180)"/><rect class="cls-2" x="325.98" y="61.68" width="14.17" height="14.17" transform="translate(538.58 89.94) rotate(-180)"/><rect class="cls-2" x="311.81" y="61.68" width="14.17" height="14.17" transform="translate(510.24 89.94) rotate(-180)"/><rect class="cls-2" x="297.64" y="47.68" width="14.17" height="14.17" transform="translate(481.89 61.94) rotate(-180)"/><rect class="cls-2" x="283.46" y="47.68" width="14.17" height="14.17" transform="translate(453.54 61.94) rotate(-180)"/><rect class="cls-2" x="269.29" y="47.68" width="14.17" height="14.17" transform="translate(425.2 61.94) rotate(-180)"/><rect class="cls-2" x="255.12" y="47.68" width="14.17" height="14.17" transform="translate(396.85 61.94) rotate(-180)"/><rect class="cls-2" x="240.94" y="47.68" width="14.17" height="14.17" transform="translate(368.5 61.94) rotate(-180)"/><rect class="cls-2" x="226.77" y="47.68" width="14.17" height="14.17" transform="translate(340.16 61.94) rotate(-180)"/><rect class="cls-2" x="297.64" y="61.68" width="14.17" height="14.17" transform="translate(481.89 89.94) rotate(-180)"/><rect class="cls-2" x="283.46" y="61.68" width="14.17" height="14.17" transform="translate(453.54 89.94) rotate(-180)"/><rect class="cls-2" x="269.29" y="61.68" width="14.17" height="14.17" transform="translate(425.2 89.94) rotate(-180)"/><rect class="cls-2" x="255.12" y="61.68" width="14.17" height="14.17" transform="translate(396.85 89.94) rotate(-180)"/><rect class="cls-2" x="240.94" y="61.68" width="14.17" height="14.17" transform="translate(368.5 89.94) rotate(-180)"/><rect class="cls-2" x="226.77" y="61.68" width="14.17" height="14.17" transform="translate(340.16 89.94) rotate(-180)"/><rect class="cls-2" x="212.6" y="47.68" width="14.17" height="14.17" transform="translate(311.81 61.94) rotate(-180)"/><rect class="cls-2" x="198.43" y="47.68" width="14.17" height="14.17" transform="translate(283.46 61.94) rotate(-180)"/><rect class="cls-2" x="184.25" y="47.68" width="14.17" height="14.17" transform="translate(255.12 61.94) rotate(-180)"/><rect class="cls-2" x="170.08" y="47.68" width="14.17" height="14.17" transform="translate(226.77 61.94) rotate(-180)"/><rect class="cls-2" x="155.91" y="47.68" width="14.17" height="14.17" transform="translate(198.43 61.94) rotate(-180)"/><rect class="cls-2" x="141.73" y="47.68" width="14.17" height="14.17" transform="translate(170.08 61.94) rotate(-180)"/><rect class="cls-2" x="212.6" y="61.68" width="14.17" height="14.17" transform="translate(311.81 89.94) rotate(-180)"/><rect class="cls-2" x="198.43" y="61.68" width="14.17" height="14.17" transform="translate(283.46 89.94) rotate(-180)"/><rect class="cls-2" x="184.25" y="61.68" width="14.17" height="14.17" transform="translate(255.12 89.94) rotate(-180)"/><rect class="cls-2" x="170.08" y="61.68" width="14.17" height="14.17" transform="translate(226.77 89.94) rotate(-180)"/><rect class="cls-2" x="155.91" y="61.68" width="14.17" height="14.17" transform="translate(198.43 89.94) rotate(-180)"/><rect class="cls-2" x="141.73" y="61.68" width="14.17" height="14.17" transform="translate(170.08 89.94) rotate(-180)"/><rect class="cls-2" x="127.56" y="47.6" width="14.17" height="14.17" transform="translate(141.73 61.77) rotate(-180)"/><rect class="cls-2" x="127.56" y="61.6" width="14.17" height="14.17" transform="translate(141.73 89.77) rotate(-180)"/></svg>